<mxfile host="app.diagrams.net" agent="Mozilla/5.0 (Windows NT 10.0; Win64; x64) AppleWebKit/537.36 (KHTML, like Gecko) Chrome/135.0.0.0 Safari/537.36 Edg/135.0.0.0" version="26.2.5">
  <diagram name="Página-1" id="94LdTMhv0Lw9kARQnBvH">
    <mxGraphModel dx="1036" dy="604" grid="1" gridSize="10" guides="1" tooltips="1" connect="1" arrows="1" fold="1" page="1" pageScale="1" pageWidth="827" pageHeight="1169" math="0" shadow="0">
      <root>
        <mxCell id="0" />
        <mxCell id="1" parent="0" />
        <mxCell id="6lRI0SPo2LRtaiyrAJHG-10" value="" style="rounded=1;whiteSpace=wrap;html=1;" vertex="1" parent="1">
          <mxGeometry x="55" y="160" width="690" height="400" as="geometry" />
        </mxCell>
        <mxCell id="6lRI0SPo2LRtaiyrAJHG-11" value="Calcular resultado del examen académico&amp;nbsp;" style="ellipse;whiteSpace=wrap;html=1;" vertex="1" parent="1">
          <mxGeometry x="110" y="260" width="120" height="80" as="geometry" />
        </mxCell>
        <mxCell id="6lRI0SPo2LRtaiyrAJHG-12" value="Analizar Respuestas con IA" style="ellipse;whiteSpace=wrap;html=1;" vertex="1" parent="1">
          <mxGeometry x="340" y="260" width="120" height="80" as="geometry" />
        </mxCell>
        <mxCell id="6lRI0SPo2LRtaiyrAJHG-13" value="Guardar historial de evaluaciones" style="ellipse;whiteSpace=wrap;html=1;" vertex="1" parent="1">
          <mxGeometry x="550" y="260" width="120" height="80" as="geometry" />
        </mxCell>
        <mxCell id="6lRI0SPo2LRtaiyrAJHG-14" value="Ajustar criterios de evaluación" style="ellipse;whiteSpace=wrap;html=1;" vertex="1" parent="1">
          <mxGeometry x="350" y="400" width="120" height="80" as="geometry" />
        </mxCell>
        <mxCell id="6lRI0SPo2LRtaiyrAJHG-15" value="Visualizar nota&amp;nbsp;" style="ellipse;whiteSpace=wrap;html=1;" vertex="1" parent="1">
          <mxGeometry x="110" y="400" width="120" height="80" as="geometry" />
        </mxCell>
        <mxCell id="6lRI0SPo2LRtaiyrAJHG-16" value="Calcular promedios&amp;nbsp;" style="ellipse;whiteSpace=wrap;html=1;" vertex="1" parent="1">
          <mxGeometry x="550" y="410" width="120" height="80" as="geometry" />
        </mxCell>
        <mxCell id="6lRI0SPo2LRtaiyrAJHG-17" value="Estudiante" style="shape=umlActor;verticalLabelPosition=bottom;verticalAlign=top;html=1;outlineConnect=0;" vertex="1" parent="1">
          <mxGeometry x="140" y="50" width="30" height="60" as="geometry" />
        </mxCell>
        <mxCell id="6lRI0SPo2LRtaiyrAJHG-20" value="Profesor" style="shape=umlActor;verticalLabelPosition=bottom;verticalAlign=top;html=1;outlineConnect=0;" vertex="1" parent="1">
          <mxGeometry x="380" y="50" width="30" height="60" as="geometry" />
        </mxCell>
        <mxCell id="6lRI0SPo2LRtaiyrAJHG-23" value="SIstema" style="shape=umlActor;verticalLabelPosition=bottom;verticalAlign=top;html=1;outlineConnect=0;" vertex="1" parent="1">
          <mxGeometry x="580" y="50" width="30" height="60" as="geometry" />
        </mxCell>
      </root>
    </mxGraphModel>
  </diagram>
</mxfile>
